#!OML:ASF F:\VICON\USERDATA\INSTALL\rory3\rory3.ASF
:FULLY-SPECIFIED
:DEGREES
33
root -10.7608 15.0089 -7.64851 12.2745 31.7716 4.23522
lowerback 29.6281 1.83229 -0.609349
upperback 7.1084 2.64422 2.64955
thorax -8.45208 1.35462 2.36798
lowerneck -19.3036 -6.49138 -5.82944
upperneck 4.43791 -7.62998 4.01974
head 4.76282 -3.59292 1.44526
rclavicle 6.20208e-014 5.88403e-014
rhumerus -8.98962 -27.0165 -50.3055
rradius 64.8892
rwrist 28.5056
rhand -31.9547 -9.09596
rfingers 7.12502
rthumb -5.20499 -39.012
lclavicle 6.20208e-014 5.88403e-014
lhumerus -45.623 35.4907 51.4795
lradius 53.4502
lwrist 5.02904
lhand -30.4063 38.6424
lfingers 7.12502
lthumb -3.70981 68.5898
rfemur -56.0257 -24.2331 28.2483
rtibia 84.9685
rfoot -29.4024 -7.5768
rtoes 0.886594
lfemur -53.5996 -0.50553 -0.814578
ltibia 74.7344
lfoot -10.1444 -11.7417
ltoes -33.7421
34
root -10.7827 15.0405 -7.62352 11.9471 31.5265 3.9739
lowerback 29.8019 1.82232 -0.401087
upperback 7.1447 2.70011 2.71564
thorax -8.49232 1.37731 2.29908
lowerneck -19.5905 -6.2415 -5.80484
upperneck 4.67765 -7.25368 3.67496
head 4.84927 -3.42708 1.36295
rclavicle 1.03368e-014 4.92986e-014
rhumerus -8.14442 -26.8281 -50.1156
rradius 64.2293
rwrist 28.3574
rhand -31.5184 -9.68634
rfingers 7.12502
rthumb -4.78374 -39.6123
lclavicle 1.03368e-014 4.92986e-014
lhumerus -45.5637 36.6361 51.3632
lradius 53.0789
lwrist 5.35002
lhand -31.223 38.9699
lfingers 7.12502
lthumb -4.49843 68.9021
rfemur -55.4522 -24.1636 28.4827
rtibia 84.5246
rfoot -29.3702 -7.33385
rtoes 1.51117
lfemur -54.0178 -0.3856 -0.400328
ltibia 75.5404
lfoot -7.33987 -12.2917
ltoes -30.4194
35
root -10.8044 15.0692 -7.59555 11.717 31.3101 3.75595
lowerback 29.8625 1.84459 -0.194294
upperback 7.19413 2.79828 2.80541
thorax -8.46589 1.42003 2.24431
lowerneck -19.8961 -5.91601 -5.92466
upperneck 4.88106 -6.7311 3.28648
head 4.92544 -3.19636 1.3052
rclavicle 2.62396e-014 5.40694e-014
rhumerus -7.90333 -26.7346 -49.8656
rradius 64.0366
rwrist 28.2834
rhand -31.0253 -11.0019
rfingers 7.12502
rthumb -4.30755 -40.9381
lclavicle 2.62396e-014 5.40694e-014
lhumerus -45.5078 35.1009 52.1365
lradius 53.9009
lwrist 6.43844
lhand -30.6672 39.3876
lfingers 7.12502
lthumb -3.96176 69.3305
rfemur -54.9851 -24.0785 28.7031
rtibia 84.0653
rfoot -29.3355 -7.04634
rtoes 2.25009
lfemur -54.6009 -0.269115 -0.0370687
ltibia 76.3602
lfoot -4.72595 -12.889
ltoes -29.1724
36
root -10.8239 15.0877 -7.57094 11.7933 30.9472 3.85739
lowerback 29.6422 1.94623 -0.336646
upperback 7.26966 2.87918 2.80149
thorax -8.28377 1.45935 2.29793
lowerneck -19.9617 -5.43422 -5.50741
upperneck 4.81055 -6.10269 2.5142
head 4.84689 -2.93245 1.06372
rclavicle 1.51076e-014 -1.59028e-014
rhumerus -7.92709 -26.8052 -49.8648
rradius 64.2585
rwrist 28.4625
rhand -31.0831 -10.9801
rfingers 7.12502
rthumb -4.36334 -40.9152
lclavicle 1.51076e-014 -1.59028e-014
lhumerus -45.3311 35.7987 52.2936
lradius 53.8275
lwrist 6.4178
lhand -31.4512 39.9956
lfingers 7.12502
lthumb -4.71883 69.9231
rfemur -54.8672 -23.9209 28.6527
rtibia 83.7304
rfoot -29.2491 -6.59015
rtoes 3.4322
lfemur -55.3959 -0.0875137 -0.0494193
ltibia 77.1756
lfoot -2.61176 -13.2929
ltoes -29.6186
37
root -10.8436 15.1131 -7.54544 11.6285 30.5068 3.80441
lowerback 29.6821 2.03964 -0.332571
upperback 7.33801 2.9914 2.76126
thorax -8.22827 1.51072 2.21007
lowerneck -20.1585 -4.99615 -5.05784
upperneck 5.0541 -5.55 1.84219
head 4.90057 -2.69881 0.83284
rclavicle -6.04305e-014 1.74931e-014
rhumerus -7.97717 -26.91 -49.9923
rradius 64.5003
rwrist 28.5891
rhand -31.8328 -9.68428
rfingers 7.12502
rthumb -5.08725 -39.6032
lclavicle -6.04305e-014 1.74931e-014
lhumerus -45.1368 36.4739 52.3273
lradius 53.7169
lwrist 6.33236
lhand -32.4363 41.0458
lfingers 7.12502
lthumb -5.67 70.95
rfemur -54.4758 -23.6829 28.6837
rtibia 83.3759
rfoot -29.3449 -6.38288
rtoes 3.29286
lfemur -55.9413 0.240691 0.00613268
ltibia 77.8859
lfoot -0.791612 -13.6544
ltoes -30.7074
38
root -10.8639 15.1438 -7.52271 11.5016 30.2921 3.7599
lowerback 29.9206 1.99665 -0.182421
upperback 7.22303 2.97475 2.69086
thorax -8.46197 1.49899 2.04389
lowerneck -20.116 -4.52649 -4.94403
upperneck 5.37112 -4.9207 1.50266
head 4.96333 -2.41436 0.770117
rclavicle -1.11319e-014 3.18055e-015
rhumerus -8.1265 -26.7863 -50.0717
rradius 64.5548
rwrist 28.7604
rhand -32.2028 -8.94315
rfingers 7.12502
rthumb -5.44456 -38.8532
lclavicle -1.11319e-014 3.18055e-015
lhumerus -45.1589 36.2233 52.3722
lradius 53.9399
lwrist 6.58347
lhand -32.523 41.7428
lfingers 7.12502
lthumb -5.75373 71.6447
rfemur -54.1048 -23.6868 28.7647
rtibia 83.0314
rfoot -29.5157 -6.10899
rtoes 3.14611
lfemur -56.5544 0.405904 0.0823056
ltibia 78.532
lfoot 1.33225 -13.9133
ltoes -30.9778
39
root -10.8791 15.1763 -7.49924 11.4248 30.0441 3.91111
lowerback 30.0914 2.03951 -0.199762
upperback 7.19032 3.0209 2.65784
thorax -8.58225 1.51987 1.99594
lowerneck -20.1872 -4.15747 -5.03639
upperneck 5.71147 -4.36859 1.20527
head 5.06107 -2.16995 0.74272
rclavicle -8.34896e-014 -1.11319e-014
rhumerus -8.36579 -26.7536 -50.0061
rradius 64.7535
rwrist 29.0775
rhand -32.2314 -9.29632
rfingers 7.12502
rthumb -5.47218 -39.2057
lclavicle -8.34896e-014 -1.11319e-014
lhumerus -45.0404 36.1108 52.7001
lradius 54.3025
lwrist 6.68127
lhand -31.508 41.0964
lfingers 7.12502
lthumb -4.77369 71.0226
rfemur -53.632 -23.6743 28.5642
rtibia 82.6519
rfoot -29.4783 -5.69091
rtoes 3.84922
lfemur -57.0085 0.399148 -0.042344
ltibia 79.1126
lfoot 3.27716 -13.8043
ltoes -30.7529
40
root -10.8893 15.2095 -7.47304 11.313 29.7033 3.98226
lowerback 29.9565 2.10439 -0.210944
upperback 7.33686 3.09558 2.6568
thorax -8.35423 1.55521 1.97894
lowerneck -20.4182 -3.67572 -4.89845
upperneck 5.95588 -3.68847 0.700082
head 5.1422 -1.87211 0.625664
rclavicle 3.10104e-014 1.90833e-014
rhumerus -8.39836 -26.7953 -50.0319
rradius 64.9787
rwrist 29.1886
rhand -32.303 -9.44066
rfingers 7.12502
rthumb -5.54127 -39.3482
lclavicle 3.10104e-014 1.90833e-014
lhumerus -44.7334 36.0628 53.1886
lradius 54.7597
lwrist 7.12689
lhand -30.7205 40.523
lfingers 7.12502
lthumb -4.01326 70.4649
rfemur -53.1221 -23.5158 28.3965
rtibia 82.2264
rfoot -29.4132 -5.33448
rtoes 4.63448
lfemur -57.4115 0.469457 -0.150301
ltibia 79.622
lfoot 5.44254 -14.0469
ltoes -29.8761
41
root -10.8986 15.24 -7.44627 11.2882 29.4892 4.01745
lowerback 29.7127 2.12996 -0.0960792
upperback 7.42665 3.15634 2.65187
thorax -8.13173 1.58246 1.89213
lowerneck -20.4304 -3.17903 -4.62912
upperneck 6.0584 -3.02021 0.0705184
head 5.14599 -1.58625 0.451508
rclavicle 1.03368e-014 -3.18055e-014
rhumerus -8.38021 -26.847 -49.8331
rradius 64.9717
rwrist 29.0542
rhand -32.2964 -9.35223
rfingers 7.12502
rthumb -5.53487 -39.26
lclavicle 1.03368e-014 -3.18055e-014
lhumerus -44.3488 35.814 53.7138
lradius 55.2031
lwrist 7.59767
lhand -30.7317 41.1737
lfingers 7.12502
lthumb -4.02409 71.1155
rfemur -52.7853 -23.4801 28.3325
rtibia 81.813
rfoot -29.3952 -4.89957
rtoes 5.74523
lfemur -58.0358 0.536777 -0.317498
ltibia 80.101
lfoot 7.53415 -14.6056
ltoes -29.2005
42
root -10.9073 15.268 -7.42561 11.3602 29.2927 4.17805
lowerback 29.5899 2.18834 0.0027569
upperback 7.41425 3.25083 2.60465
thorax -8.08253 1.62506 1.75127
lowerneck -20.2978 -2.78898 -4.40779
upperneck 6.20742 -2.4941 -0.517212
head 5.15246 -1.36929 0.284356
rclavicle 6.75868e-014 -5.24792e-014
rhumerus -8.60459 -26.9353 -49.5023
rradius 65.01
rwrist 28.7582
rhand -32.3087 -9.23343
rfingers 7.12502
rthumb -5.54679 -39.1408
lclavicle 6.75868e-014 -5.24792e-014
lhumerus -43.8254 35.5193 54.2805
lradius 55.4955
lwrist 7.39556
lhand -31.1441 42.2561
lfingers 7.12502
lthumb -4.42224 72.1899
rfemur -52.5505 -23.5026 28.1763
rtibia 81.4282
rfoot -29.3087 -4.63895
rtoes 6.28287
lfemur -58.7259 0.551919 -0.664808
ltibia 80.5923
lfoot 8.69481 -14.9207
ltoes -30.1037
43
root -10.9232 15.2983 -7.39583 11.2366 28.9667 4.16134
lowerback 29.5925 2.36541 -0.0365147
upperback 7.45233 3.46961 2.68597
thorax -8.05614 1.72815 1.78755
lowerneck -20.2704 -2.43379 -4.25698
upperneck 6.35278 -1.99208 -1.07184
head 5.17978 -1.16349 0.134783
rclavicle -2.62396e-014 1.43125e-014
rhumerus -8.87201 -27.0821 -49.235
rradius 65.2034
rwrist 28.3521
rhand -32.181 -9.22982
rfingers 7.12502
rthumb -5.4235 -39.1404
lclavicle -2.62396e-014 1.43125e-014
lhumerus -43.2408 35.385 54.9818
lradius 55.7634
lwrist 6.59181
lhand -31.6271 42.9261
lfingers 7.12502
lthumb -4.88862 72.8497
rfemur -52.0342 -23.2808 28.1743
rtibia 81.0039
rfoot -29.3129 -4.75887
rtoes 5.8985
lfemur -59.1283 0.720626 -0.797847
ltibia 81.0815
lfoot 9.80777 -14.6782
ltoes -29.6529
44
root -10.9374 15.3313 -7.36932 11.141 28.6734 4.24586
lowerback 29.6628 2.42699 -0.150826
upperback 7.45114 3.51648 2.71477
thorax -8.10137 1.75092 1.86703
lowerneck -20.16 -1.97583 -4.06836
upperneck 6.57055 -1.36528 -1.62345
head 5.21988 -0.89704 -0.00693111
rclavicle 9.85972e-014 3.18055e-015
rhumerus -9.27579 -27.0883 -49.2632
rradius 65.6532
rwrist 28.5406
rhand -32.1906 -9.20919
rfingers 7.12502
rthumb -5.43274 -39.1196
lclavicle 9.85972e-014 3.18055e-015
lhumerus -42.9442 35.5157 55.3307
lradius 55.9889
lwrist 5.55564
lhand -31.2408 42.2857
lfingers 7.12502
lthumb -4.51562 72.2175
rfemur -51.5083 -23.0841 28.0406
rtibia 80.5882
rfoot -29.3777 -4.84646
rtoes 5.35565
lfemur -59.4903 0.826969 -1.07452
ltibia 81.5522
lfoot 10.8969 -14.3378
ltoes -27.1005
45
root -10.9479 15.3664 -7.34813 10.9902 28.5376 4.15938
lowerback 29.832 2.35957 0.16302
upperback 7.3561 3.51818 2.65692
thorax -8.26912 1.74545 1.61422
lowerneck -20.1957 -1.63752 -4.0438
upperneck 7.14718 -0.88649 -1.77789
head 5.40448 -0.686185 -0.0141961
rclavicle -8.74653e-015 3.49861e-014
rhumerus -9.73565 -27.0954 -49.285
rradius 65.8142
rwrist 28.9385
rhand -32.5406 -9.24171
rfingers 7.12502
rthumb -5.77071 -39.1431
lclavicle -8.74653e-015 3.49861e-014
lhumerus -42.6853 35.3371 55.5273
lradius 56.2941
lwrist 4.71194
lhand -30.3155 40.9726
lfingers 7.12502
lthumb -3.62211 70.9216
rfemur -51.0405 -22.9568 28.0758
rtibia 80.1292
rfoot -29.2988 -4.76666
rtoes 5.41943
lfemur -59.9836 0.877683 -1.25955
ltibia 82.005
lfoot 10.6057 -14.2814
ltoes -26.2361
